<svg xmlns="http://www.w3.org/2000/svg" viewBox="0 0 62 60"><title>Logo_Bunzl</title><g id="2c7c3a67-d7f9-4bcd-9e60-5e0d884dd3fc" data-name="Layer 2"><g id="01b9fcf9-9ae0-4487-97c9-ff8dfbd0c144" data-name="Layer 1"><rect width="62" height="21.88" style="fill:#003e7e"/><rect y="38.22" width="62" height="21.78" style="fill:#7ac142"/><path d="M4.67,27.28h.64c.78,0,1.2.29,1.2.81s-.42.82-1.2.82H4.67M.14,36.18H6.55c3.32,0,5-1.15,5-3.3,0-1.54-.88-2.45-2.7-2.78a2.36,2.36,0,0,0,2.08-2.42c0-1.92-1.56-3.18-4.38-3.18H.14Zm4.53-4.76h.8c1,0,1.51.35,1.51.93s-.51.94-1.51.94h-.8Z" style="fill:#003e7e"/><path d="M12.11,24.5h4.83v6.37c0,1.22.21,1.94,1.33,1.94s1.36-.72,1.36-1.94V24.5h4.83v6.34a5.56,5.56,0,0,1-.79,3.39,6.48,6.48,0,0,1-5.4,2.26,6.52,6.52,0,0,1-5.39-2.26,5.56,5.56,0,0,1-.77-3.39" style="fill:#003e7e"/><polyline points="25.45 24.5 30.19 24.5 34.21 30.61 34.21 24.5 38.87 24.5 38.87 36.18 34.1 36.18 30.12 30.12 30.11 36.18 25.45 36.18" style="fill:#003e7e"/><polyline points="44.66 27.98 39.96 27.98 39.96 24.5 52.35 24.5 46.73 32.58 51.69 32.58 51.69 36.18 38.87 36.18" style="fill:#003e7e"/><polyline points="52.31 24.5 57.14 24.5 57.14 32.39 61.84 32.39 61.84 36.18 52.31 36.18" style="fill:#003e7e"/></g></g></svg>